<?xml version="1.0" encoding="utf-8"?>
<!-- Generator: Adobe Illustrator 19.1.0, SVG Export Plug-In . SVG Version: 6.00 Build 0)  -->
<svg version="1.1" xmlns="http://www.w3.org/2000/svg" xmlns:xlink="http://www.w3.org/1999/xlink" x="0px" y="0px"
	 viewBox="0 0 600 600" style="enable-background:new 0 0 600 600;" xml:space="preserve">
<style type="text/css">
	.st0{fill:#231F20;}
	.st1{fill:#383838;}
	.st2{fill:#231F20;fill-opacity:0.59;}
	.st3{fill:#231F20;fill-opacity:0.73;}
	.st4{fill:#231F20;fill-opacity:0.71;}
	.st5{fill:none;stroke:#000000;stroke-miterlimit:10;}
	.st6{fill:none;stroke:#231F20;stroke-miterlimit:10;}
	.st7{stroke:#231F20;stroke-miterlimit:10;}
	.st8{fill:none;stroke:#231F20;stroke-width:0.3;stroke-miterlimit:10;}
	.st9{fill:#303030;}
	.st10{fill:#434343;}
</style>
<g id="Mouth">
	<path class="st0" d="M235.2,375.6c1.3-0.5,3.1-1.1,4.4-0.7c18.5,6.7,27.8,4.6,28,6.3c1,3.5-35.2,4.8-36.3,4.9c-0.1,0-0.4,0-0.5,0
		c-30.4,2.1-32.5,3.9-32.9,3.8c-1.6-0.4-1-1.3-0.3-1.6c11.4-5.8,14.2-8,16.7-10.1c1.2-1,3.1-1.3,4.8-1.1c6.6,0.7,8.5,0.2,8.5,0.2
		S233.6,376.2,235.2,375.6z"/>
	<path class="st1" d="M197.8,391.4c14,10.4,14.3,7.6,18.7,8.8c0.1,0,1.7,0.1,1.7,0.1c8.4,1.4,22.9-0.8,23.7-0.9c0,0,0,0,0.1,0
		c8.7-3.3,23.8-12.9,27.6-15.3c0.2-0.1,0.1-0.5-0.2-0.4c-35,4.7-66.6,6.9-71.5,7.3C197.7,391,197.6,391.3,197.8,391.4z"/>
</g>
<g id="Nose">
	<path class="st0" d="M201.8,325.2c-6.2,8.2-2.9,19.4-2.9,19.4s3.8,6.1,13.1,3.5c0,0,1-1.1,0-1.5c0,0-3.4,0-3.9-0.7
		c-0.5-0.7-0.7-3,3.8-2.7c4.1,0.8,3.9,3.2,3.9,3.2s7.2,6.1,15.8-0.8c0,0,1.5-0.9,0-1.7c0,0-1.5-2.1,5.2-1.6c6.7,0.5,2.2,2.2,2.2,2.2
		s1.5,2.3,3.5,2.6c0.1,0,0.3,0,0.4,0c2.2-0.1,20.5-2.6,7.6-19.3c0,0,12,16.6-7.7,18.4c0,0-2.2,0.6-2.9-1.5c0,0,2.8-2.7-2.8-2.7
		s-5.8,0.4-5.9,1.5c0,0,1.3,1.1,0.4,1.5c0,0-6.6,6.1-15.2,1.2c0,0-0.4-2.4-3.9-3.6c0,0-5.4-0.5-4.9,2.4c0,0-0.7,1.5,4,1.5
		c0,0,0.9,0.1,0.2,0.8c0,0-7.7,2.4-12.2-2.8C196.3,333.3,201.8,325.2,201.8,325.2z"/>
</g>
<g id="Layer_7">
	<path class="st2" d="M232.1,344.5c0,0-2.2-1.5,1.3-2s6,0.4,6,0.4s1.4,0.7,0,1.6C234.4,344.2,233.8,345.4,232.1,344.5z"/>
	<path class="st3" d="M215.7,346.6c0,0,1.4-2.2-3.2-3.3c0,0-4.4-0.7-4.7,1.6c0,0-0.2,1.4,1.7,1.6L215.7,346.6z"/>
	<g id="Layer_8">
		<path class="st4" d="M216.2,346.4c0,0-11-13.3,1.6-23.6C217.8,322.8,206.8,332,216.2,346.4z"/>
	</g>
</g>
<g id="Layer_9">
	<path class="st5" d="M354.4,355.4c3.1,21.1-13.4,38-18,45.1c-3.6,5.6-53.7,49.4-64.4,54.6c-1.5,0.7-3,1.6-4.6,2.2
		c-20,6.9-42,9.2-52.6,7.9c-5-0.6-28.4-20.3-30.3-21.8c-9.5-7.2-19.4-19.6-20.1-20.9c-17.8-31.5-21.6-53.4-21.6-53.4"/>
</g>
<g id="Eyes">
	<path class="st6" d="M157.5,289.2c13-6.8,13.7-9.5,19.2-9.7c15.3-0.5,18.5,6.5,19,7.7c0.1,0.2,0.1,0.4-0.1,0.6
		c-12.6,9.6-33.5,2.6-37.7,2.8C157.4,290.6,157.1,289.4,157.5,289.2z"/>
	<path class="st6" d="M254.7,284.9c24.9-21,39.1-2.2,45.5-1.6c0.1,0,0.1,0.1,0,0.1c-8.1,1.3-12.5,3.6-17.8,4.8
		c-15.3,3.3-26.7-3.7-27.8-2.8C254.5,285.4,254.6,284.9,254.7,284.9z"/>
	<path class="st6" d="M172.6,292.6c-4-5.2-0.4-12-0.4-12"/>
	<path class="st6" d="M187.9,280.8c3.1,4.1,0.5,10.6,0.5,10.6"/>
	<path class="st6" d="M271.1,289c-4.6-5.8-0.2-13.2-0.2-13.2"/>
	<path class="st6" d="M285.6,276.3c3.1,4.1,1.1,10.4,1.1,10.4"/>
	<path class="st7" d="M178.9,279.9c-3.6,0-5.4,0.1-6.4,1.1c-0.5,0.6-0.7,1.3-1.1,2.7c-0.4,1.7-0.4,3.1-0.4,3.8
		c0,0.3,0.1,1.2,0.3,2.4c0.3,1.3,0.6,1.7,0.8,1.9c0.4,0.4,0.9,0.6,1.4,0.8c1.2,0.4,2.4,0.4,4.9,0.2c1.8-0.1,2.6-0.2,3.6-0.4
		c1.7-0.3,1.9-0.6,3.1-0.6c0.3,0,0.9,0,1.7-0.2c0.4-0.1,0.8-0.2,1.1-0.5c0.5-0.4,0.5-1.1,0.6-1.6c0.2-2.2,0.3-3.3,0.3-3.8
		c-0.2-2.1-0.3-3.6-1.4-4.5c-0.4-0.3-0.9-0.6-2.9-0.9C181.6,279.9,179.4,279.9,178.9,279.9z"/>
	<path class="st7" d="M285.7,276.9c-0.5-0.5-1.5-0.6-3.4-1c-0.4-0.1-1-0.1-2.2-0.3c-1.1-0.1-1.4-0.2-1.8-0.2c-0.3,0-1,0-1.8,0
		c-0.2,0-0.9,0.1-1.9,0.2c-0.7,0.1-0.7,0.1-1.7,0.3c-1.5,0.3-1.4,0.2-1.5,0.2c-0.8,0.4-1,1.4-1.6,3.5c-0.3,1-0.4,1.7-0.4,1.9
		c-0.1,0.6-0.2,1.3-0.1,2.3c0.1,0.9,0.3,1.6,0.5,2.1c0.5,1.4,0.7,2.1,1.2,2.5c0.6,0.4,1.4,0.4,3,0.3c0.8,0,0.9-0.1,2.4-0.2
		c1-0.1,1.1,0,1.6-0.1c0.3,0,0.9-0.1,2.6-0.4c3.8-0.8,3-1,4.7-1.2c0.3-0.1,0.7-0.1,1-0.4c0.5-0.5,0.5-1.3,0.4-2.5
		c-0.1-3.1,0.2-2.8,0-4.3C286.5,278.2,286.3,277.4,285.7,276.9z"/>
	<path class="st7" d="M202.8,266.8c0.8-2.8-3.5-4.1-7.3-5.9c-2.7-1.3-5.8-1.5-7.8-1.5c-11.9-0.6-20.7,0.6-21.2,0.7
		c-4,0.9-9.5,1.9-15.4,4.6c-4.1,1.9-13.8,7.3-13.5,9c0.1,0.4,6-3.1,20-3.5c11.3-0.3,9.8-1,21.7-0.7c3.8,0.1,9,1.1,15.6-0.3
		C201.7,267.9,202.6,267.5,202.8,266.8z"/>
	<path class="st7" d="M249,265.3c-1-2.7,3.2-4.3,6.9-6.3c2.6-1.4,5.7-1.8,7.7-2c11.8-1.2,20.7-0.6,21.2-0.5
		c4.1,0.6,9.6,1.4,15.7,3.7c4.2,1.6,15.5,3.8,15.2,5.6c-0.1,0.4-7.5,0-21.5,0.4c-11.3,0.3-9.9-0.4-21.7,0.6
		c-3.8,0.3-8.9,1.6-15.6,0.6C250.1,266.3,249.2,266,249,265.3z"/>
	<path class="st6" d="M193.1,279.3"/>
	<path class="st6" d="M159.3,282.9"/>
	<path class="st8" d="M157,287.9c12.3-7,13.6-9.3,19.1-9.6c15.1-0.6,19.5,5.2,19.9,6.3"/>
	<path class="st8" d="M254.6,283.3c24.3-20.1,39.1-2.2,45.5-1.6"/>
</g>
<g id="Hair">
	<path class="st7" d="M354.8,300c4.9,1.1,7.2-2.1,7.2-2.1c12.9-16.5,16.5-18.1,16.5-18.1c14-41.2,0-126.4,0-126.4
		C321.6,58.7,210.4,85,210.4,85c-56.2,14-100.2,91.1-100.2,98.2c0,3.3-1.4,6.3-1.4,9.6c0,41.4,6,73.5,6.9,75
		c0.1,0.2-0.2,24.8-0.2,24.8c12,4.8,13.7,14.6,13.7,14.6c4.5-26.3,0.7-43.8,0.7-43.8c0.2-20,12-61.2,12-61.2
		c61.2-63.8,129.3,3,142.5,17.2c1.4,1.5,3.6,2.3,5.6,1.9c45.8-7.5,54.6,26.4,54.6,26.4C356.9,289.2,354.8,300,354.8,300z"/>
	<path class="st6" d="M417.8,181.2"/>
</g>
<g id="Layer_6">
	<path class="st6" d="M353,324.5c-2.2,15.2-6.2,14.2-6.4,24.2c2.1,8.4,17.8,8.9,20.2,4.9c22.3-33.4,21.7-40,21.5-39
		c3.2-36.2-1-33.8-3.5-34.7c-1.9-0.7-4.1-0.6-5.8,0.5c-6.9,4.7-16.1,16.7-18.3,20.9C354.1,313.6,359.4,321.2,353,324.5
		C352.6,324.7,353.1,324.1,353,324.5z"/>
	<path class="st9" d="M361.9,308.3c0.9-2,3-3.3,3.2-3c3,3.8,6.1-0.4,7.8,1.2c4.4,4.3,4,11.6,3,17.6c-0.3,1.6-0.1,3.3-1.4,4
		c-2.8,1.7-7.2-0.5-10.6-2.1c-0.7-0.3-2.8,0.2-3.5,0.8c-0.8,0.6,1.1,2.7,0.3,3.5c-0.9,1-4,0.5-5-1.2c-1-1.9,1.1-4.3,2.9-5.5
		c1.2-0.7,1-1,1.9-1.7c2.1-1.5,2.1-4.8,2-6.8C362.2,311.2,361.1,310.2,361.9,308.3z"/>
	<path class="st6" d="M115.5,323.9c13,25.5,13.1,36.8,12.9,39.9c-0.1,0.8,0,1.6,0.2,2.3c0,0.1,0,0.2,0.1,0.3c6.1,10.4,17.8,7.8,13-3
		c-7.8-17.8-7.1-26.5-8.4-28.1c-0.3-0.3-0.5-0.7-0.7-1.1c-2.1-4.2-1.9-6.2-1.5-7.1c0.4-0.9,0.6-1.9,0.5-2.8
		c-1.2-9.8-3.3-14.3-3.3-16.6c0-0.5-0.1-1-0.3-1.5c-6.5-14.3-12.9-13.9-14.9-13.2c-2.7,0.9-1.3,3.8,0.8,5.6c1,0.9,1.9,2.2,1.9,3.6
		c0.1,7.2-0.6,13-0.8,16.3C115,320.4,114.7,322.2,115.5,323.9z"/>
	<path class="st10" d="M127.1,321.4c-0.9-0.5-2.4-0.4-3.3,0.3c-4.6,3.5,2,21,2,21l0,0c0,0,1.9,2.2,3.3,2c1.3-0.2,1.9-2.3,2.1-3
		c0.1-0.5,1-3.4-0.5-5c-0.7-0.8-1.3-0.5-1.9-1.3c-0.9-1.1-0.5-2.8-0.3-4.1C129,328.2,129.2,322.7,127.1,321.4z"/>
</g>
<g id="Layer_10">
	<path class="st5" d="M195.2,451.9c25.9,70.1,34.4,89.8,37.2,95.4c0.9,1.9,1.6,3.9,2,6c3.4,16.2,5.6,19.2,5.6,19.2"/>
	<path class="st5" d="M346.6,467"/>
	<path class="st5" d="M352.9,372.3l-0.8,37.8l-0.7,34.7c0,0.3,0,0.5,0.1,0.8c2.2,11.6-3.6,25.5-3.6,25.5l0,0
		c-1.6,3.1-3.2,6.1-4.8,9.2"/>
	<path class="st5" d="M352.9,405.6c3.2,6.6,7.1,13.7,11.8,21.1c3.8,6,7.6,11.5,11.2,16.4"/>
</g>
</svg>
