<?xml version="1.0" encoding="UTF-8" standalone="no"?>
<svg
   xmlns:dc="http://purl.org/dc/elements/1.1/"
   xmlns:cc="http://creativecommons.org/ns#"
   xmlns:rdf="http://www.w3.org/1999/02/22-rdf-syntax-ns#"
   xmlns:svg="http://www.w3.org/2000/svg"
   xmlns="http://www.w3.org/2000/svg"
   version="1.1"
   id="svg4807"
   viewBox="0 0 500.00001 300"
   height="300"
   width="500">
  <defs
     id="defs4809" />
  <metadata
     id="metadata4812">
    <rdf:RDF>
      <cc:Work
         rdf:about="">
        <dc:format>image/svg+xml</dc:format>
        <dc:type
           rdf:resource="http://purl.org/dc/dcmitype/StillImage" />
        <dc:title></dc:title>
      </cc:Work>
    </rdf:RDF>
  </metadata>
  <g
     transform="translate(0,-752.36216)"
     id="layer1">
    <g
       id="g5570">
      <rect
         y="752.36218"
         x="0"
         height="300"
         width="500"
         id="rect4161"
         style="fill:#3c3e6b;fill-opacity:1;stroke:none;stroke-width:5;stroke-linecap:round;stroke-linejoin:bevel;stroke-miterlimit:4;stroke-dasharray:none;stroke-opacity:1" />
      <g
         transform="matrix(0.60016034,0,0,0.60016034,41.229127,671.74663)"
         id="g4163">
        <path
           style="color:#000000;font-style:normal;font-variant:normal;font-weight:normal;font-stretch:normal;font-size:medium;line-height:normal;font-family:sans-serif;text-indent:0;text-align:start;text-decoration:none;text-decoration-line:none;text-decoration-style:solid;text-decoration-color:#000000;letter-spacing:normal;word-spacing:normal;text-transform:none;direction:ltr;block-progression:tb;writing-mode:lr-tb;baseline-shift:baseline;text-anchor:start;white-space:normal;clip-rule:nonzero;display:inline;overflow:visible;visibility:visible;opacity:1;isolation:auto;mix-blend-mode:normal;color-interpolation:sRGB;color-interpolation-filters:linearRGB;solid-color:#000000;solid-opacity:1;fill:#000000;fill-opacity:1;fill-rule:nonzero;stroke:none;stroke-width:7.30000019;stroke-linecap:round;stroke-linejoin:round;stroke-miterlimit:4;stroke-dasharray:none;stroke-dashoffset:0;stroke-opacity:1;color-rendering:auto;image-rendering:auto;shape-rendering:auto;text-rendering:auto;enable-background:accumulate"
           d="m 155.07596,372.1738 a 2.0254799,2.0254799 0 0 0 -1.85964,2.67682 c 20.78955,64.08122 74.41496,111.77696 140.08526,124.57818 65.67031,12.80122 133.07116,-11.30594 176.05653,-62.96046 a 2.0254799,2.0254799 0 1 0 -3.11355,-2.59121 c -42.05025,50.53085 -107.94572,74.09443 -172.1681,61.57546 -64.22237,-12.51898 -116.66563,-59.15471 -137.0064,-121.8526 a 2.0254799,2.0254799 0 0 0 -1.9941,-1.42619 z"
           id="path5355" />
        <path
           style="color:#000000;font-style:normal;font-variant:normal;font-weight:normal;font-stretch:normal;font-size:medium;line-height:normal;font-family:sans-serif;text-indent:0;text-align:start;text-decoration:none;text-decoration-line:none;text-decoration-style:solid;text-decoration-color:#000000;letter-spacing:normal;word-spacing:normal;text-transform:none;direction:ltr;block-progression:tb;writing-mode:lr-tb;baseline-shift:baseline;text-anchor:start;white-space:normal;clip-rule:nonzero;display:inline;overflow:visible;visibility:visible;opacity:1;isolation:auto;mix-blend-mode:normal;color-interpolation:sRGB;color-interpolation-filters:linearRGB;solid-color:#000000;solid-opacity:1;fill:#000000;fill-opacity:1;fill-rule:nonzero;stroke:none;stroke-width:7.29999924;stroke-linecap:round;stroke-linejoin:round;stroke-miterlimit:4;stroke-dasharray:none;stroke-dashoffset:0;stroke-opacity:1;color-rendering:auto;image-rendering:auto;shape-rendering:auto;text-rendering:auto;enable-background:accumulate"
           d="m 408.11589,297.93712 c -6.38435,-0.46039 -12.88421,-0.20541 -19.39062,0.81512 -34.70083,5.44278 -62.57663,31.57932 -70.30093,65.90792 a 2.0256206,2.0253384 48.692097 1 0 3.95096,0.88945 c 7.36302,-32.72279 33.90958,-57.60941 66.97819,-62.79618 33.06867,-5.18678 65.92661,10.38023 82.90848,39.28319 16.98186,28.90297 14.62549,65.25565 -5.94572,91.71875 a 2.0256206,2.0253384 48.692097 1 0 3.19755,2.48605 c 21.58258,-27.76408 24.05719,-65.93263 6.24046,-96.25652 -14.47612,-24.63816 -39.9732,-40.05277 -67.63837,-42.04778 z"
           id="path5359" />
        <path
           style="color:#000000;font-style:normal;font-variant:normal;font-weight:normal;font-stretch:normal;font-size:medium;line-height:normal;font-family:sans-serif;text-indent:0;text-align:start;text-decoration:none;text-decoration-line:none;text-decoration-style:solid;text-decoration-color:#000000;letter-spacing:normal;word-spacing:normal;text-transform:none;direction:ltr;block-progression:tb;writing-mode:lr-tb;baseline-shift:baseline;text-anchor:start;white-space:normal;clip-rule:nonzero;display:inline;overflow:visible;visibility:visible;opacity:1;isolation:auto;mix-blend-mode:normal;color-interpolation:sRGB;color-interpolation-filters:linearRGB;solid-color:#000000;solid-opacity:1;fill:#000000;fill-opacity:1;fill-rule:nonzero;stroke:none;stroke-width:7.30002117;stroke-linecap:round;stroke-linejoin:round;stroke-miterlimit:4;stroke-dasharray:none;stroke-dashoffset:0;stroke-opacity:1;color-rendering:auto;image-rendering:auto;shape-rendering:auto;text-rendering:auto;enable-background:accumulate"
           d="m 198.5726,372.37199 a 2.0289685,2.0219968 71.244635 0 0 -2.79295,2.37677 c 4.98985,19.21998 21.15921,33.15645 40.66297,35.00837 a 2.0289685,2.0219968 71.244635 1 0 0.37304,-4.03819 c -17.81933,-1.692 -32.54765,-14.36777 -37.12128,-31.98488 a 2.0289685,2.0219968 71.244635 0 0 -1.12178,-1.36207 z"
           id="path5365" />
        <g
           style="opacity:1;stroke:#000000;stroke-width:1.80222237;stroke-opacity:1"
           transform="matrix(0.53596374,0.14361105,-0.14361105,0.53596374,213.14638,-22.1822)"
           id="g5373">
          <path
             transform="matrix(0.99994248,0.01072506,0.01034089,0.99994653,0,0)"
             style="opacity:1;fill:none;fill-opacity:1;stroke:#000000;stroke-width:13.15768433;stroke-linecap:round;stroke-linejoin:round;stroke-miterlimit:4;stroke-dasharray:none;stroke-opacity:1"
             d="M -31.400521,682.51882 A 110.71177,114.82478 0 0 1 102.06929,660.85475"
             id="path5369" />
          <path
             transform="matrix(0.99994248,0.01072506,0.01034089,0.99994653,0,0)"
             style="opacity:1;fill:none;fill-opacity:1;stroke:#000000;stroke-width:13.15768433;stroke-linecap:round;stroke-linejoin:round;stroke-miterlimit:4;stroke-dasharray:none;stroke-opacity:1"
             d="M 76.524967,716.40457 A 110.71177,114.82478 0 0 1 -32.227232,683.35011"
             id="path5371" />
          <path
             transform="matrix(-0.86061306,0.50925942,0.49101781,0.87114953,0,0)"
             style="opacity:1;fill:none;fill-opacity:1;stroke:#000000;stroke-width:13.15768433;stroke-linecap:round;stroke-linejoin:round;stroke-miterlimit:4;stroke-dasharray:none;stroke-opacity:1"
             d="M 96.791076,646.87917 A 110.71177,114.82478 0 0 1 230.26088,625.2151"
             id="path5383" />
          <path
             transform="matrix(-0.86061306,0.50925942,0.49101781,0.87114953,0,0)"
             style="opacity:1;fill:none;fill-opacity:1;stroke:#000000;stroke-width:13.15768433;stroke-linecap:round;stroke-linejoin:round;stroke-miterlimit:4;stroke-dasharray:none;stroke-opacity:1"
             d="M 204.71656,680.76486 A 110.71177,114.82478 0 0 1 95.964365,647.7104"
             id="path5385" />
        </g>
        <path
           style="color:#000000;font-style:normal;font-variant:normal;font-weight:normal;font-stretch:normal;font-size:medium;line-height:normal;font-family:sans-serif;text-indent:0;text-align:start;text-decoration:none;text-decoration-line:none;text-decoration-style:solid;text-decoration-color:#000000;letter-spacing:normal;word-spacing:normal;text-transform:none;direction:ltr;block-progression:tb;writing-mode:lr-tb;baseline-shift:baseline;text-anchor:start;white-space:normal;clip-rule:nonzero;display:inline;overflow:visible;visibility:visible;opacity:1;isolation:auto;mix-blend-mode:normal;color-interpolation:sRGB;color-interpolation-filters:linearRGB;solid-color:#000000;solid-opacity:1;fill:#000000;fill-opacity:1;fill-rule:nonzero;stroke:none;stroke-width:5.4420228;stroke-linecap:round;stroke-linejoin:round;stroke-miterlimit:4;stroke-dasharray:none;stroke-dashoffset:0;stroke-opacity:1;color-rendering:auto;image-rendering:auto;shape-rendering:auto;text-rendering:auto;enable-background:accumulate"
           d="m 483.78502,390.26502 a 1.5051982,1.5147067 27.009756 0 0 -0.68255,0.50803 c -1.55203,1.995 -5.82841,5.16758 -12.23007,8.8171 -6.4016,3.64954 -14.95637,7.88658 -25.2754,12.52739 -20.63802,9.28161 -48.33948,20.18669 -80.17823,31.39479 a 1.5051982,1.5147067 27.009756 1 0 0.98389,2.85362 c 31.89984,-11.22963 59.66139,-22.15494 80.41456,-31.48833 10.37657,-4.6667 18.99998,-8.93409 25.53363,-12.65891 6.53372,-3.7248 10.95037,-6.7963 13.1243,-9.5908 a 1.5051982,1.5147067 27.009756 0 0 -1.69013,-2.36289 z"
           id="path5487" />
        <path
           style="opacity:1;fill:#000000;fill-opacity:1;stroke:none;stroke-width:9.79234791;stroke-linecap:round;stroke-linejoin:round;stroke-miterlimit:4;stroke-dasharray:none;stroke-opacity:1"
           id="path5491"
           d="m 369.90116,394.60006 a 5.4929376,5.4929376 0 0 1 7.48234,1.99226 5.4929376,5.4929376 0 0 1 -1.94383,7.49507 5.4929376,5.4929376 0 0 1 -7.50748,-1.89533 5.4929376,5.4929376 0 0 1 1.84674,-7.51958" />
        <path
           style="color:#000000;font-style:normal;font-variant:normal;font-weight:normal;font-stretch:normal;font-size:medium;line-height:normal;font-family:sans-serif;text-indent:0;text-align:start;text-decoration:none;text-decoration-line:none;text-decoration-style:solid;text-decoration-color:#000000;letter-spacing:normal;word-spacing:normal;text-transform:none;direction:ltr;block-progression:tb;writing-mode:lr-tb;baseline-shift:baseline;text-anchor:start;white-space:normal;clip-rule:nonzero;display:inline;overflow:visible;visibility:visible;opacity:1;isolation:auto;mix-blend-mode:normal;color-interpolation:sRGB;color-interpolation-filters:linearRGB;solid-color:#000000;solid-opacity:1;fill:#000000;fill-opacity:1;fill-rule:nonzero;stroke:none;stroke-width:7.30056667;stroke-linecap:round;stroke-linejoin:round;stroke-miterlimit:4;stroke-dasharray:none;stroke-dashoffset:0;stroke-opacity:1;color-rendering:auto;image-rendering:auto;shape-rendering:auto;text-rendering:auto;enable-background:accumulate"
           d="m 319.33699,363.36704 a 2.0433792,2.0077381 15.583318 0 0 -0.90849,1.20858 c -2.85891,10.41004 -11.50678,21.31591 -23.67565,29.42728 -12.16892,8.11136 -26.56632,12.58191 -39.0499,12.25184 a 2.0433792,2.0077381 15.583318 1 0 -0.0727,4.01858 c 13.54455,0.35811 28.61567,-4.39343 41.43063,-12.93546 12.81506,-8.54207 22.10243,-20.01073 25.30719,-31.68011 a 2.0433792,2.0077381 15.583318 0 0 -3.03109,-2.29071 z"
           id="path5505" />
        <path
           style="color:#000000;font-style:normal;font-variant:normal;font-weight:normal;font-stretch:normal;font-size:medium;line-height:normal;font-family:sans-serif;text-indent:0;text-align:start;text-decoration:none;text-decoration-line:none;text-decoration-style:solid;text-decoration-color:#000000;letter-spacing:normal;word-spacing:normal;text-transform:none;direction:ltr;block-progression:tb;writing-mode:lr-tb;baseline-shift:baseline;text-anchor:start;white-space:normal;clip-rule:nonzero;display:inline;overflow:visible;visibility:visible;opacity:1;isolation:auto;mix-blend-mode:normal;color-interpolation:sRGB;color-interpolation-filters:linearRGB;solid-color:#000000;solid-opacity:1;fill:#000000;fill-opacity:1;fill-rule:nonzero;stroke:none;stroke-width:7.30007648;stroke-linecap:round;stroke-linejoin:round;stroke-miterlimit:4;stroke-dasharray:none;stroke-dashoffset:0;stroke-opacity:1;color-rendering:auto;image-rendering:auto;shape-rendering:auto;text-rendering:auto;enable-background:accumulate"
           d="m 245.61912,406.24212 a 2.0189291,2.0320517 45.053548 1 0 -0.0592,4.04996 c 3.17225,0.0253 6.56251,0.0233 9.83364,-0.006 a 2.0189291,2.0320517 45.053548 1 0 -0.009,-4.0498 c -3.24816,0.0284 -6.61772,0.0303 -9.76539,0.005 z"
           id="path5511" />
        <path
           style="color:#000000;font-style:normal;font-variant:normal;font-weight:normal;font-stretch:normal;font-size:medium;line-height:normal;font-family:sans-serif;text-indent:0;text-align:start;text-decoration:none;text-decoration-line:none;text-decoration-style:solid;text-decoration-color:#000000;letter-spacing:normal;word-spacing:normal;text-transform:none;direction:ltr;block-progression:tb;writing-mode:lr-tb;baseline-shift:baseline;text-anchor:start;white-space:normal;clip-rule:nonzero;display:inline;overflow:visible;visibility:visible;opacity:1;isolation:auto;mix-blend-mode:normal;color-interpolation:sRGB;color-interpolation-filters:linearRGB;solid-color:#000000;solid-opacity:1;fill:#000000;fill-opacity:1;fill-rule:nonzero;stroke:none;stroke-width:7.30016422;stroke-linecap:round;stroke-linejoin:round;stroke-miterlimit:4;stroke-dasharray:none;stroke-dashoffset:0;stroke-opacity:1;color-rendering:auto;image-rendering:auto;shape-rendering:auto;text-rendering:auto;enable-background:accumulate"
           d="m 237.07212,405.74031 a 2.0158899,2.0351152 47.99216 0 0 -0.24359,4.04163 c 3.12126,0.31544 6.41553,0.49599 9.61302,0.52727 a 2.0158899,2.0351152 47.99216 1 0 0.0778,-4.04843 c -3.07171,-0.03 -6.255,-0.20537 -9.24614,-0.50766 a 2.0158899,2.0351152 47.99216 0 0 -0.20114,-0.0128 z"
           id="path5525" />
        <g
           id="g5602"
           transform="matrix(0.48053194,0.27743524,-0.27743524,0.48053194,87.07754,72.51148)"
           style="stroke:#000000;stroke-width:1.80222237;stroke-opacity:1">
          <g
             id="g5618"
             transform="matrix(0.8660254,-0.5,0.5,0.8660254,143.43509,395.65917)"
             style="stroke:#000000;stroke-width:1.80222237;stroke-opacity:1">
            <g
               id="g5626"
               transform="matrix(0.8660254,0.5,-0.5,0.8660254,58.515214,-385.95995)"
               style="stroke:#000000;stroke-width:1.80222237;stroke-opacity:1">
              <g
                 id="g5640"
                 transform="matrix(0.4942551,0.86931691,-0.86931691,0.4942551,352.30439,-725.54564)"
                 style="stroke:#000000;stroke-width:1.80222237;stroke-opacity:1">
                <path
                   style="opacity:1;fill:none;fill-rule:evenodd;stroke:#000000;stroke-width:13.15622425;stroke-linecap:round;stroke-linejoin:round;stroke-miterlimit:4;stroke-dasharray:none;stroke-opacity:1"
                   d="M 872.45173,-27.698125 764.01113,-266.12889 931.34864,-63.342677"
                   id="path5588" />
                <path
                   transform="matrix(0.0127408,-0.99991883,0.99913583,0.0415644,0,0)"
                   style="opacity:1;fill:none;fill-opacity:1;stroke:#000000;stroke-width:13.15895844;stroke-linecap:round;stroke-linejoin:round;stroke-miterlimit:4;stroke-dasharray:none;stroke-opacity:1"
                   d="m 160.41886,880.12127 a 45.120644,32.678284 0 0 1 -39.71607,4.13217 45.120644,32.678284 0 0 1 -28.557365,-20.41279"
                   id="path5590" />
                <path
                   transform="matrix(0.01201401,-0.99992783,0.99910442,0.04231273,0,0)"
                   style="opacity:1;fill:none;fill-opacity:1;stroke:#000000;stroke-width:13.15924454;stroke-linecap:round;stroke-linejoin:round;stroke-miterlimit:4;stroke-dasharray:none;stroke-opacity:1"
                   d="m 206.72445,840.49556 a 33.030224,23.903994 0 0 1 -29.07385,3.02266 33.030224,23.903994 0 0 1 -20.9052,-14.93185"
                   id="path5634" />
                <path
                   transform="matrix(0.00960782,-0.99995384,0.99899607,0.044798,0,0)"
                   style="opacity:1;fill:none;fill-opacity:1;stroke:#000000;stroke-width:13.16030025;stroke-linecap:round;stroke-linejoin:round;stroke-miterlimit:4;stroke-dasharray:none;stroke-opacity:1"
                   d="m 250.67598,805.01549 a 18.123945,13.083808 0 0 1 -15.95305,1.65444 18.123945,13.083808 0 0 1 -11.47085,-8.17292"
                   id="path5638" />
              </g>
            </g>
          </g>
        </g>
        <path
           style="opacity:1;fill:#ffffff;fill-opacity:1;stroke:#000000;stroke-width:7.29999971;stroke-linecap:round;stroke-linejoin:round;stroke-miterlimit:4;stroke-dasharray:none;stroke-opacity:1"
           d="M 309.06229,497.27136 C 241.53749,489.51249 184.24395,444.89608 160.2837,381.41255 l -3.44358,-9.12384 -6.28718,-0.71963 c -18.1603,-2.07863 -34.09044,-11.98319 -43.71051,-27.17704 l -2.11566,-3.34147 4.29967,-2.19352 c 19.09181,-9.7399 45.59231,-6.47496 61.56531,7.58504 2.79805,2.46291 5.43341,4.47802 5.85649,4.47802 0.42303,0 3.03248,-1.99229 5.79885,-4.42731 16.09679,-14.16899 42.42256,-17.43103 61.62291,-7.63575 l 4.29969,2.19352 -2.11566,3.34147 c -9.48806,14.98535 -25.71026,25.13079 -43.37967,27.12985 -6.22947,0.70479 -6.80565,0.9954 -6.80565,3.43263 0,4.42536 6.48866,15.85217 12.30354,21.66705 10.7536,10.75361 24.92039,14.90817 47.62248,13.96581 21.15354,-0.87809 37.46357,-7.73649 52.16648,-21.93608 8.38692,-8.09984 11.59684,-13.73185 16.97132,-29.77711 4.8256,-14.40669 9.43979,-21.98441 19.65856,-32.28473 22.70913,-22.89031 54.11935,-30.12919 84.69455,-19.51891 20.80725,7.22058 39.25769,25.00774 47.83415,46.11447 3.40886,8.38927 6.17183,22.29125 6.17183,31.0539 0,6.29153 -3.29062,13.23739 -7.89838,16.6314 -40.641,32.14633 -111.00334,32.89255 -109.70015,29.65613 1.22268,6.11338 87.55492,-6.69702 110.15123,-30.02532 l 6.37967,-4.08103 -0.67444,3.05148 c -1.6361,7.4026 -4.40411,14.77402 -8.63489,22.99487 -7.79849,15.15345 -31.49745,37.65064 -53.65115,50.93056 -31.86105,19.09894 -73.41475,28.10127 -110.20122,23.87435 z m 67.77998,-94.27923 c 1.26788,-1.26791 2.01696,-3.05659 1.66461,-3.97485 -0.35239,-0.91827 -0.64065,-2.14048 -0.64065,-2.71603 0,-0.57554 -1.31588,-1.54673 -2.92417,-2.15819 -6.0315,-2.29319 -10.65046,4.35822 -6.33667,9.12493 2.41529,2.66886 5.39184,2.56917 8.23688,-0.27586 z"
           id="path5674" />
        <path
           style="opacity:1;fill:#ffffff;fill-opacity:1;stroke:#000000;stroke-width:7.29999971;stroke-linecap:round;stroke-linejoin:round;stroke-miterlimit:4;stroke-dasharray:none;stroke-opacity:1"
           d="m 477.37298,342.60146 c -2.3133,-4.49383 -6.20755,-10.44446 -8.65386,-13.22363 -2.44632,-2.77916 -4.1875,-5.47435 -3.86923,-5.98929 0.31822,-0.51495 2.53898,-1.82025 4.9349,-2.90067 l 4.3563,-1.96442 5.02746,5.02743 c 5.40898,5.409 13.06154,8.50363 21.0282,8.50363 l 4.29514,0 -6.4386,5.30233 c -3.54124,2.91627 -8.69666,7.12772 -11.45641,9.35877 l -5.01781,4.05645 -4.20609,-8.1706 z"
           id="path5676" />
        <path
           style="opacity:1;fill:#ffffff;fill-opacity:1;stroke:#000000;stroke-width:7.29999971;stroke-linecap:round;stroke-linejoin:round;stroke-miterlimit:4;stroke-dasharray:none;stroke-opacity:1"
           d="m 492.01047,325.87458 c -4.89219,-1.50613 -12.04807,-6.87128 -12.04807,-9.03308 0,-0.55311 7.36591,-4.26879 16.36867,-8.25707 11.79056,-5.22329 16.59424,-6.87538 17.17525,-5.90691 1.42834,2.38093 6.24817,4.96761 11.99824,6.43914 l 5.60569,1.43461 -8.87316,7.14497 c -12.13252,9.76954 -19.01203,11.63089 -30.22662,8.17834 z"
           id="path5678" />
        <path
           style="opacity:1;fill:#ffffff;fill-opacity:1;stroke:#000000;stroke-width:7.29999971;stroke-linecap:round;stroke-linejoin:round;stroke-miterlimit:4;stroke-dasharray:none;stroke-opacity:1"
           d="m 525.60538,304.34957 c -2.05729,-0.50751 -4.70886,-1.8911 -5.89239,-3.07464 -2.12938,-2.12937 -1.98922,-2.22477 13.38664,-9.11272 l 15.53854,-6.96082 4.30457,2.0565 4.30452,2.05651 -9.37321,7.4983 c -5.15525,4.12405 -9.99732,7.49829 -10.76022,7.49829 -0.76283,0 -2.82267,0.21629 -4.57745,0.48066 -1.75478,0.26435 -4.87376,0.0654 -6.931,-0.44208 z"
           id="path5680" />
        <path
           style="opacity:1;fill:#ffffff;fill-opacity:1;stroke:#000000;stroke-width:4.9000001;stroke-linecap:round;stroke-linejoin:round;stroke-miterlimit:4;stroke-dasharray:none;stroke-opacity:1"
           d="m 557.51787,284.58 c -1.13565,-0.24698 -2.43721,-0.78398 -3.26098,-1.34542 -0.37032,-0.25237 -0.67166,-0.49007 -0.66973,-0.52822 0.006,-0.0907 26.63622,-11.97016 26.69543,-11.90793 0.0839,0.0881 -16.14456,13.22407 -16.53913,13.38738 -1.37287,0.56824 -4.51154,0.76697 -6.22559,0.39419 z"
           id="path5684" />
      </g>
    </g>
  </g>
</svg>
