<?xml version="1.0" encoding="UTF-8" standalone="no"?>
<!-- Created with Inkscape (http://www.inkscape.org/) -->

<svg
   xmlns:dc="http://purl.org/dc/elements/1.1/"
   xmlns:cc="http://creativecommons.org/ns#"
   xmlns:rdf="http://www.w3.org/1999/02/22-rdf-syntax-ns#"
   xmlns:svg="http://www.w3.org/2000/svg"
   xmlns="http://www.w3.org/2000/svg"
   xmlns:sodipodi="http://sodipodi.sourceforge.net/DTD/sodipodi-0.dtd"
   xmlns:inkscape="http://www.inkscape.org/namespaces/inkscape"
   width="500"
   height="300"
   viewBox="0 0 500.00001 300"
   id="svg4157"
   version="1.1"
   inkscape:version="0.91 r13725"
   sodipodi:docname="back.svg">
  <defs
     id="defs4159" />
  <sodipodi:namedview
     id="base"
     pagecolor="#ffffff"
     bordercolor="#666666"
     borderopacity="1.0"
     inkscape:pageopacity="0.0"
     inkscape:pageshadow="2"
     inkscape:zoom="0.7"
     inkscape:cx="82.344767"
     inkscape:cy="168.7551"
     inkscape:document-units="px"
     inkscape:current-layer="layer1"
     showgrid="false"
     units="px"
     borderlayer="true"
     inkscape:window-width="1440"
     inkscape:window-height="801"
     inkscape:window-x="290"
     inkscape:window-y="93"
     inkscape:window-maximized="0" />
  <metadata
     id="metadata4162">
    <rdf:RDF>
      <cc:Work
         rdf:about="">
        <dc:format>image/svg+xml</dc:format>
        <dc:type
           rdf:resource="http://purl.org/dc/dcmitype/StillImage" />
        <dc:title></dc:title>
      </cc:Work>
    </rdf:RDF>
  </metadata>
  <g
     inkscape:label="Layer 1"
     inkscape:groupmode="layer"
     id="layer1"
     transform="translate(0,-752.36216)">
    <rect
       style="opacity:0.98999999;fill:none;fill-opacity:1;stroke:#000000;stroke-width:10;stroke-linecap:round;stroke-linejoin:miter;stroke-miterlimit:4;stroke-dasharray:none;stroke-opacity:1"
       id="rect4715"
       width="490"
       height="290"
       x="5"
       y="757.36218" />
    <g
       transform="matrix(1.3222152,0,0,1.3222152,530.43358,1124.3615)"
       style="font-style:normal;font-variant:normal;font-weight:bold;font-stretch:normal;font-size:40px;line-height:125%;font-family:sans-serif;-inkscape-font-specification:'sans-serif, Bold';text-align:start;letter-spacing:0px;word-spacing:0px;writing-mode:lr-tb;text-anchor:start;fill:#000000;fill-opacity:1;stroke:none;stroke-width:1px;stroke-linecap:butt;stroke-linejoin:miter;stroke-opacity:1"
       id="flowRoot4705">
      <path
         d="m -252.14258,-157.49917 q 2.2461,0 3.41797,-1.64063 1.19141,-1.64062 1.19141,-4.76562 0,-3.125 -1.19141,-4.76563 -1.17187,-1.64062 -3.41797,-1.64062 -2.24609,0 -3.45703,1.66015 -1.19141,1.64063 -1.19141,4.7461 0,3.10546 1.19141,4.76562 1.21094,1.64063 3.45703,1.64063 z m -4.64844,-14.16016 q 1.44532,-1.91406 3.20313,-2.8125 1.75781,-0.91797 4.04297,-0.91797 4.04297,0 6.64062,3.22266 2.59766,3.20312 2.59766,8.26172 0,5.05859 -2.59766,8.28125 -2.59765,3.20312 -6.64062,3.20312 -2.28516,0 -4.04297,-0.89844 -1.75781,-0.91797 -3.20313,-2.83203 l 0,3.16406 -6.99218,0 0,-30.39062 6.99218,0 0,11.71875 z"
         style=""
         id="path5391" />
      <path
         d="m -225.30664,-162.83121 q -2.1875,0 -3.30078,0.74219 -1.09375,0.74219 -1.09375,2.1875 0,1.32813 0.8789,2.08985 0.89844,0.74218 2.48047,0.74218 1.97266,0 3.32032,-1.40625 1.34765,-1.42578 1.34765,-3.55468 l 0,-0.80079 -3.63281,0 z m 10.68359,-2.63671 0,12.48046 -7.05078,0 0,-3.24218 q -1.40625,1.99218 -3.16406,2.91015 -1.75781,0.89844 -4.27734,0.89844 -3.39844,0 -5.52735,-1.97266 -2.10937,-1.99218 -2.10937,-5.15625 0,-3.84765 2.63672,-5.64453 2.65625,-1.79687 8.32031,-1.79687 l 4.12109,0 0,-0.54688 q 0,-1.66015 -1.30859,-2.42187 -1.3086,-0.78125 -4.08203,-0.78125 -2.2461,0 -4.17969,0.44922 -1.93359,0.44922 -3.59375,1.34765 l 0,-5.33203 q 2.24609,-0.54687 4.51172,-0.82031 2.26562,-0.29297 4.53125,-0.29297 5.91797,0 8.53515,2.34375 2.63672,2.32422 2.63672,7.57813 z"
         style=""
         id="path5393" />
      <path
         d="m -190.48242,-174.17886 0,5.70312 q -1.42578,-0.97656 -2.8711,-1.44531 -1.42578,-0.46875 -2.96875,-0.46875 -2.92968,0 -4.57031,1.71875 -1.62109,1.69922 -1.62109,4.76563 0,3.0664 1.62109,4.78515 1.64063,1.69922 4.57031,1.69922 1.64063,0 3.10547,-0.48828 1.48438,-0.48828 2.73438,-1.44531 l 0,5.72265 q -1.64063,0.60547 -3.33985,0.89844 -1.67968,0.3125 -3.3789,0.3125 -5.91797,0 -9.25781,-3.02734 -3.33985,-3.04688 -3.33985,-8.45703 0,-5.41016 3.33985,-8.4375 3.33984,-3.04688 9.25781,-3.04688 1.71875,0 3.3789,0.3125 1.67969,0.29297 3.33985,0.89844 z"
         style=""
         id="path5395" />
      <path
         d="m -184.4082,-183.37808 6.99218,0 0,16.54297 8.04688,-8.02735 8.125,0 -10.68359,10.03907 11.52343,11.83593 -8.47656,0 -8.53516,-9.12109 0,9.12109 -6.99218,0 0,-30.39062 z"
         style=""
         id="path5397" />
    </g>
  </g>
</svg>
