<?xml version="1.0" encoding="UTF-8" standalone="no"?>
<!-- Created with Inkscape (http://www.inkscape.org/) -->

<svg
   xmlns:dc="http://purl.org/dc/elements/1.1/"
   xmlns:cc="http://creativecommons.org/ns#"
   xmlns:rdf="http://www.w3.org/1999/02/22-rdf-syntax-ns#"
   xmlns:svg="http://www.w3.org/2000/svg"
   xmlns="http://www.w3.org/2000/svg"
   xmlns:sodipodi="http://sodipodi.sourceforge.net/DTD/sodipodi-0.dtd"
   xmlns:inkscape="http://www.inkscape.org/namespaces/inkscape"
   width="500"
   height="300"
   viewBox="0 0 500.00001 300"
   id="svg4157"
   version="1.1"
   inkscape:version="0.91 r13725"
   sodipodi:docname="download.svg">
  <defs
     id="defs4159" />
  <sodipodi:namedview
     id="base"
     pagecolor="#ffffff"
     bordercolor="#666666"
     borderopacity="1.0"
     inkscape:pageopacity="0.0"
     inkscape:pageshadow="2"
     inkscape:zoom="0.7"
     inkscape:cx="82.344767"
     inkscape:cy="168.7551"
     inkscape:document-units="px"
     inkscape:current-layer="layer1"
     showgrid="false"
     units="px"
     borderlayer="true"
     inkscape:window-width="1440"
     inkscape:window-height="801"
     inkscape:window-x="290"
     inkscape:window-y="93"
     inkscape:window-maximized="0" />
  <metadata
     id="metadata4162">
    <rdf:RDF>
      <cc:Work
         rdf:about="">
        <dc:format>image/svg+xml</dc:format>
        <dc:type
           rdf:resource="http://purl.org/dc/dcmitype/StillImage" />
        <dc:title></dc:title>
      </cc:Work>
    </rdf:RDF>
  </metadata>
  <g
     inkscape:label="Layer 1"
     inkscape:groupmode="layer"
     id="layer1"
     transform="translate(0,-752.36216)">
    <rect
       style="opacity:0.98999999;fill:none;fill-opacity:1;stroke:#000000;stroke-width:10;stroke-linecap:round;stroke-linejoin:miter;stroke-miterlimit:4;stroke-dasharray:none;stroke-opacity:1"
       id="rect4715"
       width="490"
       height="290"
       x="5"
       y="757.36218" />
    <g
       transform="matrix(1.3222152,0,0,1.3222152,435.14112,1091.3061)"
       style="font-style:normal;font-variant:normal;font-weight:bold;font-stretch:normal;font-size:40px;line-height:125%;font-family:sans-serif;-inkscape-font-specification:'sans-serif, Bold';text-align:start;letter-spacing:0px;word-spacing:0px;writing-mode:lr-tb;text-anchor:start;fill:#000000;fill-opacity:1;stroke:none;stroke-width:1px;stroke-linecap:butt;stroke-linejoin:miter;stroke-opacity:1"
       id="flowRoot4705">
      <path
         d="m -248.90039,-171.65933 0,-11.71875 7.03125,0 0,30.39062 -7.03125,0 0,-3.16406 q -1.44531,1.9336 -3.18359,2.83203 -1.73829,0.89844 -4.02344,0.89844 -4.04297,0 -6.64063,-3.20312 -2.59765,-3.22266 -2.59765,-8.28125 0,-5.0586 2.59765,-8.26172 2.59766,-3.22266 6.64063,-3.22266 2.26562,0 4.0039,0.91797 1.75782,0.89844 3.20313,2.8125 z m -4.60938,14.16016 q 2.2461,0 3.41797,-1.64063 1.19141,-1.64062 1.19141,-4.76562 0,-3.125 -1.19141,-4.76563 -1.17187,-1.64062 -3.41797,-1.64062 -2.22656,0 -3.41796,1.64062 -1.17188,1.64063 -1.17188,4.76563 0,3.125 1.17188,4.76562 1.1914,1.64063 3.41796,1.64063 z"
         style=""
         id="path5324" />
      <path
         d="m -224.70117,-170.3898 q -2.32422,0 -3.55469,1.67969 -1.21094,1.66015 -1.21094,4.80469 0,3.14453 1.21094,4.82421 1.23047,1.66016 3.55469,1.66016 2.28515,0 3.49609,-1.66016 1.21094,-1.67968 1.21094,-4.82421 0,-3.14454 -1.21094,-4.80469 -1.21094,-1.67969 -3.49609,-1.67969 z m 0,-5 q 5.64453,0 8.80859,3.04688 3.1836,3.04687 3.1836,8.4375 0,5.39062 -3.1836,8.4375 -3.16406,3.04687 -8.80859,3.04687 -5.66406,0 -8.86719,-3.04687 -3.18359,-3.04688 -3.18359,-8.4375 0,-5.39063 3.18359,-8.4375 3.20313,-3.04688 8.86719,-3.04688 z"
         style=""
         id="path5326" />
      <path
         d="m -209.56445,-174.86246 6.79687,0 3.67188,15.07813 3.6914,-15.07813 5.83985,0 3.67187,14.92188 3.69141,-14.92188 6.79687,0 -5.76172,21.875 -7.63671,0 -3.69141,-15.03906 -3.67188,15.03906 -7.63671,0 -5.76172,-21.875 z"
         style=""
         id="path5328" />
      <path
         d="m -148.66602,-166.30777 0,13.32031 -7.03125,0 0,-2.16796 0,-8.02735 q 0,-2.83203 -0.13671,-3.90625 -0.11719,-1.07422 -0.42969,-1.58203 -0.41016,-0.68359 -1.11328,-1.05469 -0.70313,-0.39062 -1.60157,-0.39062 -2.1875,0 -3.4375,1.69922 -1.25,1.67968 -1.25,4.66797 l 0,10.76171 -6.99218,0 0,-21.875 6.99218,0 0,3.20313 q 1.58204,-1.91406 3.35938,-2.8125 1.77734,-0.91797 3.92578,-0.91797 3.78906,0 5.74219,2.32422 1.97265,2.32422 1.97265,6.75781 z"
         style=""
         id="path5330" />
      <path
         d="m -142.14258,-183.37808 6.99219,0 0,30.39062 -6.99219,0 0,-30.39062 z"
         style=""
         id="path5332" />
      <path
         d="m -117.98242,-170.3898 q -2.32422,0 -3.55469,1.67969 -1.21094,1.66015 -1.21094,4.80469 0,3.14453 1.21094,4.82421 1.23047,1.66016 3.55469,1.66016 2.28515,0 3.49609,-1.66016 1.21094,-1.67968 1.21094,-4.82421 0,-3.14454 -1.21094,-4.80469 -1.21094,-1.67969 -3.49609,-1.67969 z m 0,-5 q 5.64453,0 8.80859,3.04688 3.1836,3.04687 3.1836,8.4375 0,5.39062 -3.1836,8.4375 -3.16406,3.04687 -8.80859,3.04687 -5.66406,0 -8.86719,-3.04687 -3.18359,-3.04688 -3.18359,-8.4375 0,-5.39063 3.18359,-8.4375 3.20313,-3.04688 8.86719,-3.04688 z"
         style=""
         id="path5334" />
      <path
         d="m -91.087891,-162.83121 q -2.1875,0 -3.300781,0.74219 -1.09375,0.74219 -1.09375,2.1875 0,1.32813 0.878906,2.08985 0.898438,0.74218 2.480469,0.74218 1.972656,0 3.320313,-1.40625 1.347656,-1.42578 1.347656,-3.55468 l 0,-0.80079 -3.632813,0 z m 10.683594,-2.63671 0,12.48046 -7.050781,0 0,-3.24218 q -1.40625,1.99218 -3.164063,2.91015 -1.757812,0.89844 -4.277343,0.89844 -3.398438,0 -5.527346,-1.97266 -2.10937,-1.99218 -2.10937,-5.15625 0,-3.84765 2.636716,-5.64453 2.65625,-1.79687 8.320312,-1.79687 l 4.121094,0 0,-0.54688 q 0,-1.66015 -1.308594,-2.42187 -1.308594,-0.78125 -4.082031,-0.78125 -2.246094,0 -4.179688,0.44922 -1.933593,0.44922 -3.593749,1.34765 l 0,-5.33203 q 2.246093,-0.54687 4.511718,-0.82031 2.265625,-0.29297 4.53125,-0.29297 5.917969,0 8.535156,2.34375 2.636719,2.32422 2.636719,7.57813 z"
         style=""
         id="path5336" />
      <path
         d="m -59.056641,-171.65933 0,-11.71875 7.03125,0 0,30.39062 -7.03125,0 0,-3.16406 q -1.445312,1.9336 -3.183593,2.83203 -1.738282,0.89844 -4.023438,0.89844 -4.042969,0 -6.640625,-3.20312 -2.597656,-3.22266 -2.597656,-8.28125 0,-5.0586 2.597656,-8.26172 2.597656,-3.22266 6.640625,-3.22266 2.265625,0 4.003906,0.91797 1.757813,0.89844 3.203125,2.8125 z m -4.609375,14.16016 q 2.246094,0 3.417969,-1.64063 1.191406,-1.64062 1.191406,-4.76562 0,-3.125 -1.191406,-4.76563 -1.171875,-1.64062 -3.417969,-1.64062 -2.226562,0 -3.417968,1.64062 -1.171875,1.64063 -1.171875,4.76563 0,3.125 1.171875,4.76562 1.191406,1.64063 3.417968,1.64063 z"
         style=""
         id="path5338" />
      <path
         d="m -249.38867,-133.37808 0,4.58984 -3.86719,0 q -1.48437,0 -2.07031,0.54688 -0.58594,0.52734 -0.58594,1.85547 l 0,1.52343 5.97656,0 0,5 -5.97656,0 0,16.875 -6.99219,0 0,-16.875 -3.47656,0 0,-5 3.47656,0 0,-1.52343 q 0,-3.57422 1.99219,-5.27344 1.99219,-1.71875 6.17188,-1.71875 l 5.35156,0 z"
         style=""
         id="path5340" />
      <path
         d="m -246.5957,-111.50308 0,-13.35938 7.03125,0 0,2.1875 q 0,1.77735 -0.0195,4.47266 -0.0195,2.67578 -0.0195,3.57422 0,2.63672 0.13672,3.80859 0.13672,1.15235 0.46875,1.67969 0.42969,0.68359 1.11328,1.05469 0.70313,0.37109 1.60157,0.37109 2.1875,0 3.4375,-1.67969 1.25,-1.67968 1.25,-4.66796 l 0,-10.80079 6.99218,0 0,21.875 -6.99218,0 0,-3.16406 q -1.58203,1.91406 -3.35938,2.83203 -1.75781,0.89844 -3.88672,0.89844 -3.78906,0 -5.78125,-2.32422 -1.97265,-2.32422 -1.97265,-6.75781 z"
         style=""
         id="path5342" />
      <path
         d="m -217.8457,-133.37808 6.99218,0 0,30.39062 -6.99218,0 0,-30.39062 z"
         style=""
         id="path5344" />
      <path
         d="m -204.0957,-133.37808 6.99218,0 0,30.39062 -6.99218,0 0,-30.39062 z"
         style=""
         id="path5346" />
      <path
         d="m -160.18945,-118.90542 q -0.91797,-0.42969 -1.83594,-0.625 -0.89844,-0.21485 -1.81641,-0.21485 -2.69531,0 -4.16015,1.73828 -1.44532,1.71875 -1.44532,4.94141 l 0,10.07812 -6.99218,0 0,-21.875 6.99218,0 0,3.59375 q 1.34766,-2.14843 3.08594,-3.125 1.75781,-0.99609 4.19922,-0.99609 0.35156,0 0.76172,0.0391 0.41016,0.0195 1.19141,0.11719 l 0.0195,6.32813 z"
         style=""
         id="path5348" />
      <path
         d="m -134.83789,-113.98355 0,1.99219 -16.34766,0 q 0.25391,2.46094 1.77735,3.6914 1.52343,1.23047 4.25781,1.23047 2.20703,0 4.51172,-0.64453 2.32422,-0.66406 4.76562,-1.99219 l 0,5.39063 q -2.48047,0.9375 -4.96093,1.40625 -2.48047,0.48828 -4.96094,0.48828 -5.9375,0 -9.23828,-3.00781 -3.28125,-3.02735 -3.28125,-8.47656 0,-5.35157 3.22265,-8.41797 3.24219,-3.06641 8.90625,-3.06641 5.15625,0 8.24219,3.10547 3.10547,3.10547 3.10547,8.30078 z m -7.1875,-2.32422 q 0,-1.99219 -1.17188,-3.20312 -1.15234,-1.23047 -3.02734,-1.23047 -2.03125,0 -3.30078,1.15234 -1.26953,1.13281 -1.58203,3.28125 l 9.08203,0 z"
         style=""
         id="path5350" />
      <path
         d="m -112.39648,-124.17886 0,5.3125 q -2.2461,-0.9375 -4.33594,-1.40625 -2.08985,-0.46875 -3.94531,-0.46875 -1.99219,0 -2.96875,0.50781 -0.95704,0.48828 -0.95704,1.52344 0,0.83984 0.72266,1.28906 0.74219,0.44922 2.63672,0.66406 l 1.23047,0.17578 q 5.37109,0.6836 7.22656,2.2461 1.85547,1.5625 1.85547,4.90234 0,3.4961 -2.57813,5.25391 -2.57812,1.75781 -7.69531,1.75781 -2.16797,0 -4.49219,-0.35156 -2.30468,-0.33203 -4.74609,-1.01563 l 0,-5.3125 q 2.08984,1.01563 4.27734,1.52344 2.20704,0.50781 4.47266,0.50781 2.05078,0 3.08594,-0.5664 1.03515,-0.56641 1.03515,-1.67969 0,-0.9375 -0.72265,-1.38672 -0.70313,-0.46875 -2.83203,-0.72266 l -1.23047,-0.15625 q -4.66797,-0.58593 -6.54297,-2.16796 -1.875,-1.58204 -1.875,-4.80469 0,-3.47656 2.38281,-5.15625 2.38281,-1.67969 7.30469,-1.67969 1.93359,0 4.0625,0.29297 2.12891,0.29297 4.62891,0.91797 z"
         style=""
         id="path5352" />
      <path
         d="m -105.9707,-111.50308 0,-13.35938 7.031247,0 0,2.1875 q 0,1.77735 -0.01953,4.47266 -0.01953,2.67578 -0.01953,3.57422 0,2.63672 0.136719,3.80859 0.136719,1.15235 0.46875,1.67969 0.429688,0.68359 1.113281,1.05469 0.703125,0.37109 1.601563,0.37109 2.1875,0 3.4375,-1.67969 1.25,-1.67968 1.25,-4.66796 l 0,-10.80079 6.992187,0 0,21.875 -6.992187,0 0,-3.16406 q -1.582031,1.91406 -3.359375,2.83203 -1.757813,0.89844 -3.886719,0.89844 -3.789063,0 -5.781253,-2.32422 -1.97265,-2.32422 -1.97265,-6.75781 z"
         style=""
         id="path5354" />
      <path
         d="m -56.947266,-121.22964 q 1.328125,-2.03125 3.144532,-3.08594 1.835937,-1.07422 4.023437,-1.07422 3.769531,0 5.742188,2.32422 1.972656,2.32422 1.972656,6.75781 l 0,13.32031 -7.03125,0 0,-11.40625 q 0.01953,-0.2539 0.01953,-0.52734 0.01953,-0.27344 0.01953,-0.78125 0,-2.32422 -0.683593,-3.35937 -0.683594,-1.05469 -2.207032,-1.05469 -1.992187,0 -3.085937,1.64062 -1.074219,1.64063 -1.113281,4.7461 l 0,10.74218 -7.03125,0 0,-11.40625 q 0,-3.63281 -0.625,-4.66796 -0.625,-1.05469 -2.226563,-1.05469 -2.011719,0 -3.105469,1.66015 -1.09375,1.64063 -1.09375,4.70704 l 0,10.76171 -7.03125,0 0,-21.875 7.03125,0 0,3.20313 q 1.289063,-1.85547 2.949219,-2.79297 1.679688,-0.9375 3.691406,-0.9375 2.265625,0 4.003907,1.09375 1.738281,1.09375 2.636718,3.06641 z"
         style=""
         id="path5356" />
      <path
         d="m -13.666016,-113.98355 0,1.99219 -16.347656,0 q 0.253906,2.46094 1.777344,3.6914 1.523437,1.23047 4.257812,1.23047 2.207032,0 4.511719,-0.64453 2.324219,-0.66406 4.765625,-1.99219 l 0,5.39063 q -2.480469,0.9375 -4.960937,1.40625 -2.480469,0.48828 -4.960938,0.48828 -5.9375,0 -9.238281,-3.00781 -3.28125,-3.02735 -3.28125,-8.47656 0,-5.35157 3.222656,-8.41797 3.242188,-3.06641 8.90625,-3.06641 5.15625,0 8.242188,3.10547 3.105468,3.10547 3.105468,8.30078 z m -7.1875,-2.32422 q 0,-1.99219 -1.171875,-3.20312 -1.152343,-1.23047 -3.027343,-1.23047 -2.03125,0 -3.300782,1.15234 -1.269531,1.13281 -1.582031,3.28125 l 9.082031,0 z"
         style=""
         id="path5358" />
    </g>
  </g>
</svg>
