<?xml version="1.0" encoding="UTF-8" standalone="no"?>
<svg
   xmlns:dc="http://purl.org/dc/elements/1.1/"
   xmlns:cc="http://creativecommons.org/ns#"
   xmlns:rdf="http://www.w3.org/1999/02/22-rdf-syntax-ns#"
   xmlns:svg="http://www.w3.org/2000/svg"
   xmlns="http://www.w3.org/2000/svg"
   xmlns:sodipodi="http://sodipodi.sourceforge.net/DTD/sodipodi-0.dtd"
   xmlns:inkscape="http://www.inkscape.org/namespaces/inkscape"
   version="1.1"
   id="svg5227"
   viewBox="0 0 500 300"
   height="300"
   width="500"
   inkscape:version="0.91 r13725"
   sodipodi:docname="scienceteam.svg">
  <sodipodi:namedview
     pagecolor="#ffffff"
     bordercolor="#666666"
     borderopacity="1"
     objecttolerance="10"
     gridtolerance="10"
     guidetolerance="10"
     inkscape:pageopacity="0"
     inkscape:pageshadow="2"
     inkscape:window-width="845"
     inkscape:window-height="480"
     id="namedview29"
     showgrid="false"
     inkscape:zoom="0.62"
     inkscape:cx="250"
     inkscape:cy="150"
     inkscape:window-x="0"
     inkscape:window-y="0"
     inkscape:window-maximized="0"
     inkscape:current-layer="layer1" />
  <defs
     id="defs5229" />
  <metadata
     id="metadata5232">
    <rdf:RDF>
      <cc:Work
         rdf:about="">
        <dc:format>image/svg+xml</dc:format>
        <dc:type
           rdf:resource="http://purl.org/dc/dcmitype/StillImage" />
        <dc:title />
      </cc:Work>
    </rdf:RDF>
  </metadata>
  <g
     transform="translate(0,-752.36216)"
     id="layer1">
    <rect
       y="750.86218"
       x="1.5"
       height="300"
       width="500"
       id="rect6755"
       style="fill:#6bca4e;fill-opacity:1;stroke:none;stroke-width:3.00000024;stroke-linecap:round;stroke-linejoin:bevel;stroke-miterlimit:4;stroke-dasharray:none;stroke-opacity:1" />
    <g
       style="stroke:#3f3d5b;stroke-opacity:1;stroke-width:5;stroke-miterlimit:4;stroke-dasharray:none"
       transform="translate(-104.78813,0)"
       id="g6774">
      <g
         style="stroke:#3f3d5b;stroke-opacity:1;stroke-width:6.52401095;stroke-miterlimit:4;stroke-dasharray:none"
         id="g6727"
         transform="matrix(0.7704727,0,0,0.76234822,57.941646,158.12074)">
        <path
           d="m 301.823,967.78558 a 47.290333,44.444508 0 0 1 -29.59329,-30.45756 47.290333,44.444508 0 0 1 9.79145,-40.20589"
           id="path6715"
           style="fill:none;fill-opacity:1;stroke:#3f3d5b;stroke-width:6.52401532;stroke-linecap:round;stroke-linejoin:bevel;stroke-miterlimit:4;stroke-dasharray:none;stroke-opacity:1"
           transform="matrix(0.99807249,-0.06205891,0.06042419,0.99817279,0,0)" />
        <path
           transform="matrix(0.93315862,0.35946487,-0.40554746,0.91407399,0,0)"
           d="m 667.06446,698.15787 a 12.744155,19.873034 0 0 1 -15.59852,-11.69764 12.744155,19.873034 0 0 1 6.26664,-25.15953"
           id="path6717"
           style="fill:none;fill-opacity:1;stroke:#3f3d5b;stroke-width:6.52807239;stroke-linecap:round;stroke-linejoin:bevel;stroke-miterlimit:4;stroke-dasharray:none;stroke-opacity:1" />
        <path
           transform="matrix(0.35800031,0.93372147,-0.94484785,0.32750961,0,0)"
           d="m 914.80877,-21.997265 a 26.196585,27.620045 0 0 1 -31.21952,-19.501045 26.196585,27.620045 0 0 1 17.21239,-33.681"
           id="path6719"
           style="fill:none;fill-opacity:1;stroke:#3f3d5b;stroke-width:6.52572984;stroke-linecap:round;stroke-linejoin:bevel;stroke-miterlimit:4;stroke-dasharray:none;stroke-opacity:1" />
        <path
           transform="matrix(0.76929772,0.63889045,-0.68534682,0.72821682,0,0)"
           d="m 843.91089,376.32371 a 9.3788099,9.3941536 0 0 1 2.91753,-10.77114 9.3788099,9.3941536 0 0 1 11.13594,-0.37699 9.3788099,9.3941536 0 0 1 3.63694,10.54925"
           id="path6721"
           style="fill:none;fill-opacity:1;stroke:#3f3d5b;stroke-width:6.5302926;stroke-linecap:round;stroke-linejoin:bevel;stroke-miterlimit:4;stroke-dasharray:none;stroke-opacity:1" />
        <path
           style="fill:none;fill-opacity:1;stroke:#3f3d5b;stroke-width:6.52416148;stroke-linecap:round;stroke-linejoin:bevel;stroke-miterlimit:4;stroke-dasharray:none;stroke-opacity:1"
           id="path6723"
           d="m 886.46317,-229.63224 a 39.589054,25.491261 0 0 1 8.75353,-27.17435 39.589054,25.491261 0 0 1 42.10855,-5.92191 39.589054,25.491261 0 0 1 25.55225,22.34978"
           transform="matrix(0.20707579,0.9783249,-0.98026909,0.1976677,0,0)" />
        <path
           transform="matrix(-0.60031311,0.79976507,-0.69339517,-0.72055751,0,0)"
           d="m 308.88353,-897.76527 a 31.524736,19.992788 0 0 1 25.88336,-19.97388 31.524736,19.992788 0 0 1 35.31097,12.91972"
           id="path6725"
           style="fill:none;fill-opacity:1;stroke:#3f3d5b;stroke-width:6.56645795;stroke-linecap:round;stroke-linejoin:bevel;stroke-miterlimit:4;stroke-dasharray:none;stroke-opacity:1" />
      </g>
      <path
         transform="scale(1,-1)"
         d="m 336.1366,-880.50308 a 17.629499,3.3305852 0 0 1 18.16119,-2.16102 17.629499,3.3305852 0 0 1 15.7505,2.7546"
         id="path6664"
         style="fill:none;fill-opacity:1;stroke:#3f3d5b;stroke-width:5;stroke-linecap:round;stroke-linejoin:round;stroke-miterlimit:4;stroke-dasharray:none;stroke-opacity:1" />
      <path
         style="fill:none;fill-rule:evenodd;stroke:#3f3d5b;stroke-width:5;stroke-linecap:round;stroke-linejoin:round;stroke-miterlimit:4;stroke-dasharray:none;stroke-opacity:1"
         d="m 335.03756,879.43351 0,33.12156 -0.82527,2.31728 -27.53265,77.30934 c -6.17132,16.29701 -4.81467,28.69361 22.29982,27.74481 l 32.87993,-0.2519"
         id="path6658" />
      <path
         id="path6660"
         d="m 370.2934,880.25426 0,32.30081 0.82527,2.31728 27.53265,77.30934 c 6.17132,16.29701 4.81467,28.69361 -22.29981,27.74481 l -32.87994,-0.2519"
         style="fill:none;fill-rule:evenodd;stroke:#3f3d5b;stroke-width:5;stroke-linecap:round;stroke-linejoin:round;stroke-miterlimit:4;stroke-dasharray:none;stroke-opacity:1" />
    </g>
    <path
       transform="translate(0,752.36216)"
       id="path6786"
       d="m 214.52285,264.30672 c -10.30979,-1.13734 -14.29076,-6.0894 -12.36245,-15.37803 0.46876,-2.25801 7.56432,-22.9388 15.7679,-45.95731 l 14.9156,-41.85183 0,-14.75342 0,-14.75342 2.32143,0.51786 c 3.01314,0.67216 22.344,0.67216 25.35714,0 l 2.32143,-0.51786 0,14.60236 0,14.60235 15.0817,42.34408 c 8.29494,23.28924 15.42493,44.31374 15.84442,46.72111 1.30025,7.46178 -1.58473,11.88968 -9.06972,13.9203 -3.28762,0.8919 -62.7874,1.31906 -70.17745,0.50381 z"
       style="fill:#a585c4;fill-opacity:1;stroke:none;stroke-width:5;stroke-linecap:round;stroke-linejoin:bevel;stroke-miterlimit:4;stroke-dasharray:none;stroke-opacity:1" />
    <path
       transform="translate(0,752.36216)"
       id="path6788"
       d="m 236.05818,126.62792 c -1.17857,-0.28443 -2.84494,-0.89438 -3.70304,-1.35546 -0.8581,-0.46107 -2.25954,-0.83832 -3.1143,-0.83832 -2.72492,0 -9.80901,-4.33632 -13.55534,-8.29751 -7.28817,-7.70617 -10.20838,-18.50968 -7.51112,-27.787914 1.92563,-6.623945 3.66316,-9.487651 6.46747,-10.659366 4.02493,-1.681726 3.24999,-5.398064 -1.12562,-5.398064 -2.11789,0 -3.67043,-3.077213 -3.63841,-7.211505 0.0324,-4.180695 2.53783,-10.037548 5.47374,-12.795693 l 1.8244,-1.713935 1.79145,1.931995 c 2.03312,2.192628 2.04697,2.196838 3.92344,1.192578 1.61108,-0.862223 1.77589,-2.645568 0.42856,-4.637365 -1.64779,-2.43599 -2.81886,-7.97341 -2.28644,-10.811474 2.66386,-14.199581 20.58345,-19.601645 31.94151,-9.629133 2.85653,2.508065 4.24802,2.783932 5.63184,1.116531 0.77254,-0.93086 0.77301,-1.392572 0.003,-2.626131 -0.80408,-1.28754 -0.75404,-1.628804 0.35807,-2.441999 1.95974,-1.433 4.16077,-1.138354 5.98258,0.800871 1.91772,2.041319 1.59799,4.893362 -0.68557,6.115487 -2.07275,1.109303 -1.88155,4.138175 0.29572,4.684636 1.25655,0.315374 2.71201,-0.254584 5.43729,-2.129248 2.89473,-1.99123 4.42399,-2.559901 6.88403,-2.559901 14.56715,0 26.14357,26.099611 19.47817,43.9145 -1.57115,4.199262 -4.93525,7.985651 -8.3815,9.433607 -1.96475,0.825499 -2.32827,1.322574 -2.14285,2.930162 0.15401,1.335407 0.6915,2.002848 1.73256,2.151443 2.07575,0.296281 3.13358,2.998835 3.13358,8.005674 0,7.525044 -4.8642,17.445054 -11.03244,22.499464 -4.2848,3.51106 -9.28394,5.5845 -12.16248,5.04448 -1.28973,-0.24195 -4.20099,0.0483 -6.50551,0.64851 -4.38131,1.14119 -20.81195,1.41989 -24.94243,0.42308 z"
       style="fill:#c2acd7;fill-opacity:1;stroke:none;stroke-width:5;stroke-linecap:round;stroke-linejoin:bevel;stroke-miterlimit:4;stroke-dasharray:none;stroke-opacity:1" />
    <path
       transform="matrix(0.4860484,-0.87393189,0.87720777,0.48011096,0,0)"
       d="m -634.47661,628.23078 a 17.940491,12.377864 0 0 1 15.68309,-1.59667 17.940491,12.377864 0 0 1 11.39479,7.60418"
       id="path6790"
       style="fill:none;fill-opacity:1;stroke:#3f3d5b;stroke-width:5.0000577;stroke-linecap:round;stroke-linejoin:bevel;stroke-miterlimit:4;stroke-dasharray:none;stroke-opacity:1" />
    <path
       style="fill:none;fill-opacity:1;stroke:#3f3d5b;stroke-width:5.0000577;stroke-linecap:round;stroke-linejoin:bevel;stroke-miterlimit:4;stroke-dasharray:none;stroke-opacity:1"
       id="path6792"
       d="m 235.00488,-800.84728 a 13.755291,12.377864 0 0 1 10.99701,-8.63932 13.755291,12.377864 0 0 1 13.44017,5.12763"
       transform="matrix(-0.83238546,0.55419711,-0.55982891,-0.82860823,0,0)" />
    <path
       style="fill:none;fill-opacity:1;stroke:#3f3d5b;stroke-width:5.0000577;stroke-linecap:round;stroke-linejoin:bevel;stroke-miterlimit:4;stroke-dasharray:none;stroke-opacity:1"
       id="path6794"
       d="m 741.0305,436.02489 a 17.940491,12.377864 0 0 1 8.81255,2.04956"
       transform="matrix(0.7183548,0.69567692,-0.69078965,0.72305578,0,0)" />
    <path
       id="path6796"
       d="m 291.15607,988.72248 -27.47356,0"
       style="fill:none;fill-rule:evenodd;stroke:#3f3d5b;stroke-width:4.99999952;stroke-linecap:round;stroke-linejoin:miter;stroke-miterlimit:4;stroke-dasharray:none;stroke-opacity:1" />
    <path
       style="fill:none;fill-rule:evenodd;stroke:#3f3d5b;stroke-width:5;stroke-linecap:round;stroke-linejoin:miter;stroke-miterlimit:4;stroke-dasharray:none;stroke-opacity:1"
       d="m 285.84089,972.72254 -22.69085,0"
       id="path6800" />
    <path
       id="path6802"
       d="m 281.07772,956.72254 -18.43623,0"
       style="fill:none;fill-rule:evenodd;stroke:#3f3d5b;stroke-width:5;stroke-linecap:round;stroke-linejoin:miter;stroke-miterlimit:4;stroke-dasharray:none;stroke-opacity:1" />
    <path
       style="fill:none;fill-rule:evenodd;stroke:#3f3d5b;stroke-width:5;stroke-linecap:round;stroke-linejoin:miter;stroke-miterlimit:4;stroke-dasharray:none;stroke-opacity:1"
       d="m 275.21067,940.72255 -13.23656,0"
       id="path6804" />
    <path
       id="path6806"
       d="m 268.71767,924.72258 -7.35317,0"
       style="fill:none;fill-rule:evenodd;stroke:#3f3d5b;stroke-width:5.00000048;stroke-linecap:round;stroke-linejoin:miter;stroke-miterlimit:4;stroke-dasharray:none;stroke-opacity:1" />
    <path
       style="fill:none;fill-rule:evenodd;stroke:#3f3d5b;stroke-width:5;stroke-linecap:round;stroke-linejoin:miter;stroke-miterlimit:4;stroke-dasharray:none;stroke-opacity:1"
       d="m 293.06059,1004.7225 -29.13972,0"
       id="path6808" />
  </g>
</svg>
