<?xml version="1.0" encoding="utf-8"?>
<!-- Generator: Adobe Illustrator 19.1.0, SVG Export Plug-In . SVG Version: 6.00 Build 0)  -->
<svg version="1.1" id="Layer_1" xmlns:sketch="http://www.bohemiancoding.com/sketch/ns"
	 xmlns="http://www.w3.org/2000/svg" xmlns:xlink="http://www.w3.org/1999/xlink" x="0px" y="0px" viewBox="-280 372 50 50"
	 style="enable-background:new -280 372 50 50;" xml:space="preserve">
<style type="text/css">
	.st0{fill:#FFFFFF;stroke:#000000;stroke-miterlimit:10;}
</style>
<title></title>
<g id="Page-1">
	<g id="Intsagram">
		<path id="Oval-1" class="st0" d="M-255,375c-12.2,0-22,9.8-22,22s9.8,22,22,22s22-9.8,22-22S-242.8,375-255,375z M-244,406.5
			c0-0.1,0-0.2,0-0.3v-18.4c0-0.1,0-0.2,0-0.3c-0.2-1-1-1.8-2-2h-0.1h-17.7c-0.1,0-0.2,0-0.3,0.1c-1,0.2-1.7,1.1-1.8,2.1v0.1v18.5
			c0,0.1,0,0.2,0.1,0.4c0.2,1,1,1.8,2,1.9h0.1h17.6c0.1,0,0.2,0,0.3-0.1C-245,408.2-244.2,407.5-244,406.5z M-263.6,405.1
			c0,0.5,0.4,0.9,0.9,0.9c5.2,0,10.3,0,15.5,0c0.5,0,0.9-0.4,0.9-0.9c0-3.4,0-6.8,0-10.2v-0.1h-2.1c0.3,1,0.4,2,0.3,3
			c-0.1,1-0.4,2-0.9,2.9s-1.2,1.6-2,2.2c-2.1,1.5-4.9,1.6-7.2,0.3c-1.1-0.7-2-1.6-2.7-2.8c-0.9-1.8-1.1-3.7-0.5-5.6
			c-0.7,0-1.4,0-2.1,0v0.1C-263.6,398.3-263.6,401.7-263.6,405.1z M-255.1,401.7c2.5,0.1,4.5-2,4.6-4.6s-2-4.8-4.5-4.8
			c-2.4,0-4.4,2.1-4.5,4.6C-259.5,399.5-257.5,401.6-255.1,401.7z M-246.4,390.5c0-0.7,0-1.5,0-2.2c0-0.5-0.4-0.9-0.9-0.9
			c-0.7,0-1.4,0-2.1,0c-0.5,0-0.9,0.4-0.9,0.9c0,0.7,0,1.4,0,2.2c0,0.1,0,0.2,0.1,0.3c0.1,0.4,0.5,0.6,0.9,0.6c0.3,0,0.7,0,1,0
			c0.4,0,0.7,0,1.1,0C-246.8,391.4-246.4,391-246.4,390.5z"/>
	</g>
</g>
</svg>
