<?xml version="1.0" encoding="UTF-8" standalone="no"?>
<!-- Generator: Adobe Illustrator 19.1.0, SVG Export Plug-In . SVG Version: 6.00 Build 0)  -->

<svg
   xmlns:dc="http://purl.org/dc/elements/1.1/"
   xmlns:cc="http://creativecommons.org/ns#"
   xmlns:rdf="http://www.w3.org/1999/02/22-rdf-syntax-ns#"
   xmlns:svg="http://www.w3.org/2000/svg"
   xmlns="http://www.w3.org/2000/svg"
   xmlns:sodipodi="http://sodipodi.sourceforge.net/DTD/sodipodi-0.dtd"
   xmlns:inkscape="http://www.inkscape.org/namespaces/inkscape"
   version="1.1"
   x="0px"
   y="0px"
   viewBox="0 0 350 500"
   xml:space="preserve"
   id="svg2"
   inkscape:version="0.91 r13725"
   sodipodi:docname="morinFace.svg"
   width="350"
   height="500"><metadata
     id="metadata81"><rdf:RDF><cc:Work
         rdf:about=""><dc:format>image/svg+xml</dc:format><dc:type
           rdf:resource="http://purl.org/dc/dcmitype/StillImage" /><dc:title></dc:title></cc:Work></rdf:RDF></metadata><defs
     id="defs79" /><sodipodi:namedview
     pagecolor="#ffffff"
     bordercolor="#666666"
     borderopacity="1"
     objecttolerance="10"
     gridtolerance="10"
     guidetolerance="10"
     inkscape:pageopacity="0"
     inkscape:pageshadow="2"
     inkscape:window-width="1033"
     inkscape:window-height="776"
     id="namedview77"
     showgrid="false"
     inkscape:zoom="0.39333333"
     inkscape:cx="300"
     inkscape:cy="300"
     inkscape:window-x="0"
     inkscape:window-y="0"
     inkscape:window-maximized="0"
     inkscape:current-layer="svg2" /><style
     type="text/css"
     id="style4">
	.st0{fill:#231F20;}
	.st1{fill:#383838;}
	.st2{fill:#231F20;fill-opacity:0.59;}
	.st3{fill:#231F20;fill-opacity:0.73;}
	.st4{fill:#231F20;fill-opacity:0.71;}
	.st5{fill:none;stroke:#000000;stroke-miterlimit:10;}
	.st6{fill:none;stroke:#231F20;stroke-miterlimit:10;}
	.st7{stroke:#231F20;stroke-miterlimit:10;}
	.st8{fill:none;stroke:#231F20;stroke-width:0.3;stroke-miterlimit:10;}
	.st9{fill:#303030;}
	.st10{fill:#434343;}
</style><g
     id="g4209"
     transform="translate(-88.05,-76.971296)"><g
       id="Mouth"><path
         style="fill:#231f20"
         inkscape:connector-curvature="0"
         id="path7"
         d="m 235.2,375.6 c 1.3,-0.5 3.1,-1.1 4.4,-0.7 18.5,6.7 27.8,4.6 28,6.3 1,3.5 -35.2,4.8 -36.3,4.9 -0.1,0 -0.4,0 -0.5,0 -30.4,2.1 -32.5,3.9 -32.9,3.8 -1.6,-0.4 -1,-1.3 -0.3,-1.6 11.4,-5.8 14.2,-8 16.7,-10.1 1.2,-1 3.1,-1.3 4.8,-1.1 6.6,0.7 8.5,0.2 8.5,0.2 0,0 6,-1.1 7.6,-1.7 z"
         class="st0" /><path
         style="fill:#383838"
         inkscape:connector-curvature="0"
         id="path9"
         d="m 197.8,391.4 c 14,10.4 14.3,7.6 18.7,8.8 0.1,0 1.7,0.1 1.7,0.1 8.4,1.4 22.9,-0.8 23.7,-0.9 0,0 0,0 0.1,0 8.7,-3.3 23.8,-12.9 27.6,-15.3 0.2,-0.1 0.1,-0.5 -0.2,-0.4 -35,4.7 -66.6,6.9 -71.5,7.3 -0.2,0 -0.3,0.3 -0.1,0.4 z"
         class="st1" /></g><g
       id="Nose"><path
         style="fill:#231f20"
         inkscape:connector-curvature="0"
         id="path12"
         d="m 201.8,325.2 c -6.2,8.2 -2.9,19.4 -2.9,19.4 0,0 3.8,6.1 13.1,3.5 0,0 1,-1.1 0,-1.5 0,0 -3.4,0 -3.9,-0.7 -0.5,-0.7 -0.7,-3 3.8,-2.7 4.1,0.8 3.9,3.2 3.9,3.2 0,0 7.2,6.1 15.8,-0.8 0,0 1.5,-0.9 0,-1.7 0,0 -1.5,-2.1 5.2,-1.6 6.7,0.5 2.2,2.2 2.2,2.2 0,0 1.5,2.3 3.5,2.6 0.1,0 0.3,0 0.4,0 2.2,-0.1 20.5,-2.6 7.6,-19.3 0,0 12,16.6 -7.7,18.4 0,0 -2.2,0.6 -2.9,-1.5 0,0 2.8,-2.7 -2.8,-2.7 -5.6,0 -5.8,0.4 -5.9,1.5 0,0 1.3,1.1 0.4,1.5 0,0 -6.6,6.1 -15.2,1.2 0,0 -0.4,-2.4 -3.9,-3.6 0,0 -5.4,-0.5 -4.9,2.4 0,0 -0.7,1.5 4,1.5 0,0 0.9,0.1 0.2,0.8 0,0 -7.7,2.4 -12.2,-2.8 -3.3,-11.2 2.2,-19.3 2.2,-19.3 z"
         class="st0" /></g><g
       id="Layer_7"><path
         style="fill:#231f20;fill-opacity:0.58999999"
         inkscape:connector-curvature="0"
         id="path15"
         d="m 232.1,344.5 c 0,0 -2.2,-1.5 1.3,-2 3.5,-0.5 6,0.4 6,0.4 0,0 1.4,0.7 0,1.6 -5,-0.3 -5.6,0.9 -7.3,0 z"
         class="st2" /><path
         style="fill:#231f20;fill-opacity:0.73000004"
         inkscape:connector-curvature="0"
         id="path17"
         d="m 215.7,346.6 c 0,0 1.4,-2.2 -3.2,-3.3 0,0 -4.4,-0.7 -4.7,1.6 0,0 -0.2,1.4 1.7,1.6 l 6.2,0.1 z"
         class="st3" /><g
         id="Layer_8"><path
           style="fill:#231f20;fill-opacity:0.70999995"
           inkscape:connector-curvature="0"
           id="path20"
           d="m 216.2,346.4 c 0,0 -11,-13.3 1.6,-23.6 0,0 -11,9.2 -1.6,23.6 z"
           class="st4" /></g></g><g
       id="Layer_9"><path
         style="fill:none;stroke:#000000;stroke-miterlimit:10"
         inkscape:connector-curvature="0"
         id="path23"
         d="m 354.4,355.4 c 3.1,21.1 -13.4,38 -18,45.1 -3.6,5.6 -53.7,49.4 -64.4,54.6 -1.5,0.7 -3,1.6 -4.6,2.2 -20,6.9 -42,9.2 -52.6,7.9 -5,-0.6 -28.4,-20.3 -30.3,-21.8 -9.5,-7.2 -19.4,-19.6 -20.1,-20.9 -17.8,-31.5 -21.6,-53.4 -21.6,-53.4"
         class="st5" /></g><g
       id="Eyes"><path
         style="fill:none;stroke:#231f20;stroke-miterlimit:10"
         inkscape:connector-curvature="0"
         id="path26"
         d="m 157.5,289.2 c 13,-6.8 13.7,-9.5 19.2,-9.7 15.3,-0.5 18.5,6.5 19,7.7 0.1,0.2 0.1,0.4 -0.1,0.6 -12.6,9.6 -33.5,2.6 -37.7,2.8 -0.5,0 -0.8,-1.2 -0.4,-1.4 z"
         class="st6" /><path
         style="fill:none;stroke:#231f20;stroke-miterlimit:10"
         inkscape:connector-curvature="0"
         id="path28"
         d="m 254.7,284.9 c 24.9,-21 39.1,-2.2 45.5,-1.6 0.1,0 0.1,0.1 0,0.1 -8.1,1.3 -12.5,3.6 -17.8,4.8 -15.3,3.3 -26.7,-3.7 -27.8,-2.8 -0.1,0 0,-0.5 0.1,-0.5 z"
         class="st6" /><path
         style="fill:none;stroke:#231f20;stroke-miterlimit:10"
         inkscape:connector-curvature="0"
         id="path30"
         d="m 172.6,292.6 c -4,-5.2 -0.4,-12 -0.4,-12"
         class="st6" /><path
         style="fill:none;stroke:#231f20;stroke-miterlimit:10"
         inkscape:connector-curvature="0"
         id="path32"
         d="m 187.9,280.8 c 3.1,4.1 0.5,10.6 0.5,10.6"
         class="st6" /><path
         style="fill:none;stroke:#231f20;stroke-miterlimit:10"
         inkscape:connector-curvature="0"
         id="path34"
         d="m 271.1,289 c -4.6,-5.8 -0.2,-13.2 -0.2,-13.2"
         class="st6" /><path
         style="fill:none;stroke:#231f20;stroke-miterlimit:10"
         inkscape:connector-curvature="0"
         id="path36"
         d="m 285.6,276.3 c 3.1,4.1 1.1,10.4 1.1,10.4"
         class="st6" /><path
         style="stroke:#231f20;stroke-miterlimit:10"
         inkscape:connector-curvature="0"
         id="path38"
         d="m 178.9,279.9 c -3.6,0 -5.4,0.1 -6.4,1.1 -0.5,0.6 -0.7,1.3 -1.1,2.7 -0.4,1.7 -0.4,3.1 -0.4,3.8 0,0.3 0.1,1.2 0.3,2.4 0.3,1.3 0.6,1.7 0.8,1.9 0.4,0.4 0.9,0.6 1.4,0.8 1.2,0.4 2.4,0.4 4.9,0.2 1.8,-0.1 2.6,-0.2 3.6,-0.4 1.7,-0.3 1.9,-0.6 3.1,-0.6 0.3,0 0.9,0 1.7,-0.2 0.4,-0.1 0.8,-0.2 1.1,-0.5 0.5,-0.4 0.5,-1.1 0.6,-1.6 0.2,-2.2 0.3,-3.3 0.3,-3.8 -0.2,-2.1 -0.3,-3.6 -1.4,-4.5 -0.4,-0.3 -0.9,-0.6 -2.9,-0.9 -2.9,-0.4 -5.1,-0.4 -5.6,-0.4 z"
         class="st7" /><path
         style="stroke:#231f20;stroke-miterlimit:10"
         inkscape:connector-curvature="0"
         id="path40"
         d="m 285.7,276.9 c -0.5,-0.5 -1.5,-0.6 -3.4,-1 -0.4,-0.1 -1,-0.1 -2.2,-0.3 -1.1,-0.1 -1.4,-0.2 -1.8,-0.2 -0.3,0 -1,0 -1.8,0 -0.2,0 -0.9,0.1 -1.9,0.2 -0.7,0.1 -0.7,0.1 -1.7,0.3 -1.5,0.3 -1.4,0.2 -1.5,0.2 -0.8,0.4 -1,1.4 -1.6,3.5 -0.3,1 -0.4,1.7 -0.4,1.9 -0.1,0.6 -0.2,1.3 -0.1,2.3 0.1,0.9 0.3,1.6 0.5,2.1 0.5,1.4 0.7,2.1 1.2,2.5 0.6,0.4 1.4,0.4 3,0.3 0.8,0 0.9,-0.1 2.4,-0.2 1,-0.1 1.1,0 1.6,-0.1 0.3,0 0.9,-0.1 2.6,-0.4 3.8,-0.8 3,-1 4.7,-1.2 0.3,-0.1 0.7,-0.1 1,-0.4 0.5,-0.5 0.5,-1.3 0.4,-2.5 -0.1,-3.1 0.2,-2.8 0,-4.3 -0.2,-1.4 -0.4,-2.2 -1,-2.7 z"
         class="st7" /><path
         style="stroke:#231f20;stroke-miterlimit:10"
         inkscape:connector-curvature="0"
         id="path42"
         d="m 202.8,266.8 c 0.8,-2.8 -3.5,-4.1 -7.3,-5.9 -2.7,-1.3 -5.8,-1.5 -7.8,-1.5 -11.9,-0.6 -20.7,0.6 -21.2,0.7 -4,0.9 -9.5,1.9 -15.4,4.6 -4.1,1.9 -13.8,7.3 -13.5,9 0.1,0.4 6,-3.1 20,-3.5 11.3,-0.3 9.8,-1 21.7,-0.7 3.8,0.1 9,1.1 15.6,-0.3 6.8,-1.3 7.7,-1.7 7.9,-2.4 z"
         class="st7" /><path
         style="stroke:#231f20;stroke-miterlimit:10"
         inkscape:connector-curvature="0"
         id="path44"
         d="m 249,265.3 c -1,-2.7 3.2,-4.3 6.9,-6.3 2.6,-1.4 5.7,-1.8 7.7,-2 11.8,-1.2 20.7,-0.6 21.2,-0.5 4.1,0.6 9.6,1.4 15.7,3.7 4.2,1.6 15.5,3.8 15.2,5.6 -0.1,0.4 -7.5,0 -21.5,0.4 -11.3,0.3 -9.9,-0.4 -21.7,0.6 -3.8,0.3 -8.9,1.6 -15.6,0.6 -6.8,-1.1 -7.7,-1.4 -7.9,-2.1 z"
         class="st7" /><path
         style="fill:none;stroke:#231f20;stroke-miterlimit:10"
         inkscape:connector-curvature="0"
         id="path46"
         d="M 193.1,279.3"
         class="st6" /><path
         style="fill:none;stroke:#231f20;stroke-miterlimit:10"
         inkscape:connector-curvature="0"
         id="path48"
         d="M 159.3,282.9"
         class="st6" /><path
         style="fill:none;stroke:#231f20;stroke-width:0.30000001;stroke-miterlimit:10"
         inkscape:connector-curvature="0"
         id="path50"
         d="m 157,287.9 c 12.3,-7 13.6,-9.3 19.1,-9.6 15.1,-0.6 19.5,5.2 19.9,6.3"
         class="st8" /><path
         style="fill:none;stroke:#231f20;stroke-width:0.30000001;stroke-miterlimit:10"
         inkscape:connector-curvature="0"
         id="path52"
         d="m 254.6,283.3 c 24.3,-20.1 39.1,-2.2 45.5,-1.6"
         class="st8" /></g><g
       id="Hair"><path
         style="stroke:#231f20;stroke-miterlimit:10"
         inkscape:connector-curvature="0"
         id="path55"
         d="m 354.8,300 c 4.9,1.1 7.2,-2.1 7.2,-2.1 12.9,-16.5 16.5,-18.1 16.5,-18.1 14,-41.2 0,-126.4 0,-126.4 C 321.6,58.7 210.4,85 210.4,85 c -56.2,14 -100.2,91.1 -100.2,98.2 0,3.3 -1.4,6.3 -1.4,9.6 0,41.4 6,73.5 6.9,75 0.1,0.2 -0.2,24.8 -0.2,24.8 12,4.8 13.7,14.6 13.7,14.6 4.5,-26.3 0.7,-43.8 0.7,-43.8 0.2,-20 12,-61.2 12,-61.2 61.2,-63.8 129.3,3 142.5,17.2 1.4,1.5 3.6,2.3 5.6,1.9 45.8,-7.5 54.6,26.4 54.6,26.4 12.3,41.5 10.2,52.3 10.2,52.3 z"
         class="st7" /><path
         style="fill:none;stroke:#231f20;stroke-miterlimit:10"
         inkscape:connector-curvature="0"
         id="path57"
         d="M 417.8,181.2"
         class="st6" /></g><g
       id="Layer_6"><path
         style="fill:none;stroke:#231f20;stroke-miterlimit:10"
         inkscape:connector-curvature="0"
         id="path60"
         d="m 353,324.5 c -2.2,15.2 -6.2,14.2 -6.4,24.2 2.1,8.4 17.8,8.9 20.2,4.9 22.3,-33.4 21.7,-40 21.5,-39 3.2,-36.2 -1,-33.8 -3.5,-34.7 -1.9,-0.7 -4.1,-0.6 -5.8,0.5 -6.9,4.7 -16.1,16.7 -18.3,20.9 -6.6,12.3 -1.3,19.9 -7.7,23.2 -0.4,0.2 0.1,-0.4 0,0 z"
         class="st6" /><path
         style="fill:#303030"
         inkscape:connector-curvature="0"
         id="path62"
         d="m 361.9,308.3 c 0.9,-2 3,-3.3 3.2,-3 3,3.8 6.1,-0.4 7.8,1.2 4.4,4.3 4,11.6 3,17.6 -0.3,1.6 -0.1,3.3 -1.4,4 -2.8,1.7 -7.2,-0.5 -10.6,-2.1 -0.7,-0.3 -2.8,0.2 -3.5,0.8 -0.8,0.6 1.1,2.7 0.3,3.5 -0.9,1 -4,0.5 -5,-1.2 -1,-1.9 1.1,-4.3 2.9,-5.5 1.2,-0.7 1,-1 1.9,-1.7 2.1,-1.5 2.1,-4.8 2,-6.8 -0.3,-3.9 -1.4,-4.9 -0.6,-6.8 z"
         class="st9" /><path
         style="fill:none;stroke:#231f20;stroke-miterlimit:10"
         inkscape:connector-curvature="0"
         id="path64"
         d="m 115.5,323.9 c 13,25.5 13.1,36.8 12.9,39.9 -0.1,0.8 0,1.6 0.2,2.3 0,0.1 0,0.2 0.1,0.3 6.1,10.4 17.8,7.8 13,-3 -7.8,-17.8 -7.1,-26.5 -8.4,-28.1 -0.3,-0.3 -0.5,-0.7 -0.7,-1.1 -2.1,-4.2 -1.9,-6.2 -1.5,-7.1 0.4,-0.9 0.6,-1.9 0.5,-2.8 -1.2,-9.8 -3.3,-14.3 -3.3,-16.6 0,-0.5 -0.1,-1 -0.3,-1.5 -6.5,-14.3 -12.9,-13.9 -14.9,-13.2 -2.7,0.9 -1.3,3.8 0.8,5.6 1,0.9 1.9,2.2 1.9,3.6 0.1,7.2 -0.6,13 -0.8,16.3 0,1.9 -0.3,3.7 0.5,5.4 z"
         class="st6" /><path
         style="fill:#434343"
         inkscape:connector-curvature="0"
         id="path66"
         d="m 127.1,321.4 c -0.9,-0.5 -2.4,-0.4 -3.3,0.3 -4.6,3.5 2,21 2,21 l 0,0 c 0,0 1.9,2.2 3.3,2 1.3,-0.2 1.9,-2.3 2.1,-3 0.1,-0.5 1,-3.4 -0.5,-5 -0.7,-0.8 -1.3,-0.5 -1.9,-1.3 -0.9,-1.1 -0.5,-2.8 -0.3,-4.1 0.5,-3.1 0.7,-8.6 -1.4,-9.9 z"
         class="st10" /></g><g
       id="Layer_10"><path
         style="fill:none;stroke:#000000;stroke-miterlimit:10"
         inkscape:connector-curvature="0"
         id="path69"
         d="m 195.2,451.9 c 25.9,70.1 34.4,89.8 37.2,95.4 0.9,1.9 1.6,3.9 2,6 3.4,16.2 5.6,19.2 5.6,19.2"
         class="st5" /><path
         style="fill:none;stroke:#000000;stroke-miterlimit:10"
         inkscape:connector-curvature="0"
         id="path71"
         d="M 346.6,467"
         class="st5" /><path
         style="fill:none;stroke:#000000;stroke-miterlimit:10"
         inkscape:connector-curvature="0"
         id="path73"
         d="m 352.9,372.3 -0.8,37.8 -0.7,34.7 c 0,0.3 0,0.5 0.1,0.8 2.2,11.6 -3.6,25.5 -3.6,25.5 l 0,0 c -1.6,3.1 -3.2,6.1 -4.8,9.2"
         class="st5" /><path
         style="fill:none;stroke:#000000;stroke-miterlimit:10"
         inkscape:connector-curvature="0"
         id="path75"
         d="m 352.9,405.6 c 3.2,6.6 7.1,13.7 11.8,21.1 3.8,6 7.6,11.5 11.2,16.4"
         class="st5" /></g></g></svg>